# Blender 4.4.0
# www.blender.org
mtllib PLAYER02.mtl
o Cube
v 0.490971 -0.101836 -0.245853
v -0.490971 -0.101835 -0.245853
v 0.490971 -0.051915 -0.260996
v -0.490971 -0.051915 -0.260996
v 0.490971 -0.000000 -0.266109
v -0.490971 0.000000 -0.266109
v 0.347758 -0.347758 -0.446174
v 0.446174 -0.347758 -0.347758
v 0.347758 -0.446174 -0.347758
v -0.446174 -0.347758 -0.347758
v -0.347758 -0.347758 -0.446174
v -0.347758 -0.446174 -0.347758
v 0.347758 -0.446174 0.347758
v 0.446174 -0.347758 0.347758
v 0.347758 -0.347758 0.446174
v -0.347758 -0.446174 0.347758
v -0.347758 -0.347758 0.446174
v -0.446174 -0.347758 0.347758
v 0.347758 0.347758 -0.446174
v 0.347758 0.446174 -0.347758
v 0.446174 0.347758 -0.347758
v -0.347758 0.446174 -0.347758
v -0.347758 0.347758 -0.446174
v -0.446174 0.347758 -0.347758
v 0.347758 0.446174 0.347758
v 0.347758 0.347758 0.446174
v 0.446174 0.347758 0.347758
v -0.446174 0.347758 0.347758
v -0.347758 0.347758 0.446174
v -0.347758 0.446174 0.347758
v -0.490971 -0.147842 -0.221261
v 0.490971 -0.147842 -0.221261
v -0.490971 -0.188167 -0.188167
v 0.490971 -0.188167 -0.188167
v -0.490971 -0.221262 -0.147842
v 0.490971 -0.221262 -0.147842
v -0.490971 -0.245853 -0.101835
v 0.490971 -0.245853 -0.101835
v -0.490971 -0.260996 -0.051915
v 0.490971 -0.260996 -0.051915
v -0.490971 -0.266109 0.000000
v 0.490971 -0.266109 0.000000
v -0.490971 -0.260996 0.051915
v 0.490971 -0.260996 0.051915
v -0.490971 -0.245853 0.101835
v 0.490971 -0.245853 0.101835
v -0.490971 -0.221262 0.147842
v 0.490971 -0.221262 0.147842
v -0.490971 -0.188167 0.188167
v 0.490971 -0.188167 0.188167
v -0.490971 -0.147842 0.221261
v 0.490971 -0.147842 0.221261
v -0.490971 -0.101835 0.245853
v 0.490971 -0.101836 0.245853
v -0.490971 -0.051915 0.260996
v 0.490971 -0.051915 0.260996
v -0.490971 0.000000 0.266109
v 0.490971 -0.000000 0.266109
v -0.490971 0.051915 0.260996
v 0.490971 0.051915 0.260996
v -0.490971 0.101835 0.245853
v 0.490971 0.101835 0.245853
v -0.490971 0.147842 0.221261
v 0.490971 0.147842 0.221261
v -0.490971 0.188167 0.188167
v 0.490971 0.188167 0.188167
v -0.490971 0.221261 0.147842
v 0.490971 0.221261 0.147842
v -0.490971 0.245853 0.101835
v 0.490971 0.245853 0.101835
v -0.490971 0.260996 0.051915
v 0.490971 0.260996 0.051915
v -0.490971 0.266109 0.000000
v 0.490971 0.266109 0.000000
v -0.490971 0.260996 -0.051915
v 0.490971 0.260996 -0.051915
v -0.490971 0.245853 -0.101835
v 0.490971 0.245853 -0.101835
v -0.490971 0.221261 -0.147842
v 0.490971 0.221261 -0.147842
v -0.490971 0.188167 -0.188167
v 0.490971 0.188167 -0.188167
v -0.490971 0.147842 -0.221261
v 0.490971 0.147842 -0.221261
v -0.490971 0.101835 -0.245853
v 0.490971 0.101835 -0.245853
v -0.490971 0.051915 -0.260996
v 0.490971 0.051915 -0.260996
vn -1.0000 -0.0000 -0.0000
vn -0.0000 1.0000 -0.0000
vn -0.0000 -0.0000 1.0000
vn 1.0000 -0.0000 -0.0000
vn -0.0000 -1.0000 -0.0000
vn 0.5774 -0.5774 -0.5774
vn -0.5774 -0.5774 -0.5774
vn 0.5774 -0.5774 0.5774
vn -0.5774 -0.5774 0.5774
vn 0.5774 0.5774 -0.5774
vn -0.5774 0.5774 -0.5774
vn 0.5774 0.5774 0.5774
vn -0.5774 0.5774 0.5774
vn -0.7071 0.7071 -0.0000
vn -0.7071 -0.0000 -0.7071
vn -0.0000 -0.7071 -0.7071
vn -0.0000 0.7071 0.7071
vn -0.0000 -0.7071 0.7071
vn -0.0000 0.7071 -0.7071
vn 0.7071 -0.0000 0.7071
vn 0.7071 -0.7071 -0.0000
vn -0.7071 -0.0000 0.7071
vn 0.7071 0.7071 -0.0000
vn 0.7071 -0.0000 -0.7071
vn -0.7071 -0.7071 -0.0000
vn -0.0000 -0.0000 -1.0000
vn -0.0000 -0.0980 -0.9952
vn -0.0000 -0.2903 -0.9569
vn -0.0000 -0.4714 -0.8819
vn -0.0000 -0.6344 -0.7730
vn -0.0000 -0.7730 -0.6344
vn -0.0000 -0.8819 -0.4714
vn -0.0000 -0.9569 -0.2903
vn -0.0000 -0.9952 -0.0980
vn -0.0000 -0.9952 0.0980
vn -0.0000 -0.9569 0.2903
vn -0.0000 -0.8819 0.4714
vn -0.0000 -0.7730 0.6344
vn -0.0000 -0.6344 0.7730
vn -0.0000 -0.4714 0.8819
vn -0.0000 -0.2903 0.9569
vn -0.0000 -0.0980 0.9952
vn -0.0000 0.0980 0.9952
vn -0.0000 0.2903 0.9569
vn -0.0000 0.4714 0.8819
vn -0.0000 0.6344 0.7730
vn -0.0000 0.7730 0.6344
vn -0.0000 0.8819 0.4714
vn -0.0000 0.9569 0.2903
vn -0.0000 0.9952 0.0980
vn -0.0000 0.9952 -0.0980
vn -0.0000 0.9569 -0.2903
vn -0.0000 0.8819 -0.4714
vn -0.0000 0.7730 -0.6344
vn -0.0000 0.6344 -0.7730
vn -0.0000 0.4714 -0.8819
vn -0.0000 0.2903 -0.9569
vn -0.0000 0.0980 -0.9952
vt 0.152572 0.527572
vt 0.347428 0.527572
vt 0.347428 0.722428
vt 0.152572 0.722428
vt 0.402572 0.027572
vt 0.597428 0.027572
vt 0.597428 0.222428
vt 0.402572 0.222428
vt 0.402572 0.777572
vt 0.597428 0.777572
vt 0.597428 0.972428
vt 0.402572 0.972428
vt 0.652572 0.527572
vt 0.847428 0.527572
vt 0.847428 0.722428
vt 0.652572 0.722428
vt 0.402572 0.527572
vt 0.597428 0.527572
vt 0.597428 0.722428
vt 0.402572 0.722428
vt 0.597428 0.472428
vt 0.625000 0.472428
vt 0.597428 0.500000
vt 0.347428 0.500000
vt 0.375000 0.527572
vt 0.597428 0.750000
vt 0.625000 0.777572
vt 0.375000 0.722428
vt 0.347428 0.750000
vt 0.597428 0.250000
vt 0.625000 0.222428
vt 0.125000 0.527572
vt 0.152572 0.500000
vt 0.597428 0.000000
vt 0.625000 0.027572
vt 0.152572 0.750000
vt 0.125000 0.722428
vt 0.402572 0.472428
vt 0.402572 0.000000
vt 0.597428 0.277572
vt 0.402572 0.277572
vt 0.625000 0.972428
vt 0.347428 0.750000
vt 0.625000 0.277572
vt 1.000000 0.500000
vt 1.000000 1.000000
vt 0.968750 1.000000
vt 0.968750 0.500000
vt 0.937500 1.000000
vt 0.937500 0.500000
vt 0.906250 1.000000
vt 0.906250 0.500000
vt 0.875000 1.000000
vt 0.875000 0.500000
vt 0.843750 1.000000
vt 0.843750 0.500000
vt 0.812500 1.000000
vt 0.812500 0.500000
vt 0.781250 1.000000
vt 0.781250 0.500000
vt 0.750000 1.000000
vt 0.750000 0.500000
vt 0.718750 1.000000
vt 0.718750 0.500000
vt 0.687500 1.000000
vt 0.687500 0.500000
vt 0.656250 1.000000
vt 0.656250 0.500000
vt 0.625000 1.000000
vt 0.625000 0.500000
vt 0.593750 1.000000
vt 0.593750 0.500000
vt 0.562500 1.000000
vt 0.562500 0.500000
vt 0.531250 1.000000
vt 0.531250 0.500000
vt 0.500000 1.000000
vt 0.500000 0.500000
vt 0.468750 1.000000
vt 0.468750 0.500000
vt 0.437500 1.000000
vt 0.437500 0.500000
vt 0.406250 1.000000
vt 0.406250 0.500000
vt 0.375000 1.000000
vt 0.375000 0.500000
vt 0.343750 1.000000
vt 0.343750 0.500000
vt 0.312500 1.000000
vt 0.312500 0.500000
vt 0.281250 1.000000
vt 0.281250 0.500000
vt 0.250000 1.000000
vt 0.250000 0.500000
vt 0.218750 1.000000
vt 0.218750 0.500000
vt 0.187500 1.000000
vt 0.187500 0.500000
vt 0.156250 1.000000
vt 0.156250 0.500000
vt 0.125000 1.000000
vt 0.125000 0.500000
vt 0.093750 1.000000
vt 0.093750 0.500000
vt 0.062500 1.000000
vt 0.062500 0.500000
vt 0.296822 0.485388
vt 0.250000 0.490000
vt 0.203178 0.485388
vt 0.158156 0.471731
vt 0.116663 0.449553
vt 0.080294 0.419706
vt 0.050447 0.383337
vt 0.028269 0.341844
vt 0.014612 0.296822
vt 0.010000 0.250000
vt 0.014612 0.203178
vt 0.028269 0.158156
vt 0.050447 0.116663
vt 0.080294 0.080294
vt 0.116663 0.050447
vt 0.158156 0.028269
vt 0.203178 0.014612
vt 0.250000 0.010000
vt 0.296822 0.014612
vt 0.341844 0.028269
vt 0.383337 0.050447
vt 0.419706 0.080294
vt 0.449553 0.116663
vt 0.471731 0.158156
vt 0.485388 0.203178
vt 0.490000 0.250000
vt 0.485388 0.296822
vt 0.471731 0.341844
vt 0.449553 0.383337
vt 0.419706 0.419706
vt 0.383337 0.449553
vt 0.341844 0.471731
vt 0.031250 1.000000
vt 0.031250 0.500000
vt 0.000000 1.000000
vt 0.000000 0.500000
vt 0.750000 0.490000
vt 0.796822 0.485388
vt 0.841844 0.471731
vt 0.883337 0.449553
vt 0.919706 0.419706
vt 0.949553 0.383337
vt 0.971731 0.341844
vt 0.985388 0.296822
vt 0.990000 0.250000
vt 0.985388 0.203178
vt 0.971731 0.158156
vt 0.949553 0.116663
vt 0.919706 0.080294
vt 0.883337 0.050447
vt 0.841844 0.028269
vt 0.796822 0.014612
vt 0.750000 0.010000
vt 0.703178 0.014612
vt 0.658156 0.028269
vt 0.616663 0.050447
vt 0.580294 0.080294
vt 0.550447 0.116663
vt 0.528269 0.158156
vt 0.514612 0.203178
vt 0.510000 0.250000
vt 0.514612 0.296822
vt 0.528269 0.341844
vt 0.550447 0.383337
vt 0.580294 0.419706
vt 0.616663 0.449553
vt 0.658156 0.471731
vt 0.703178 0.485388
s 0
usemtl Material
f 24/1/1 10/2/1 18/3/1 28/4/1
f 30/5/2 25/6/2 20/7/2 22/8/2
f 17/9/3 15/10/3 26/11/3 29/12/3
f 8/13/4 21/14/4 27/15/4 14/16/4
f 12/17/5 9/18/5 13/19/5 16/20/5
f 7/21/6 8/22/6 9/23/6
f 10/2/7 11/24/7 12/25/7
f 13/26/8 14/27/8 15/10/8
f 16/28/9 17/29/9 18/3/9
f 19/30/10 20/7/10 21/31/10
f 22/32/11 23/33/11 24/1/11
f 25/6/12 26/34/12 27/35/12
f 28/4/13 29/36/13 30/37/13
f 24/1/14 28/4/14 30/37/14 22/32/14
f 10/2/15 24/1/15 23/33/15 11/24/15
f 9/18/16 12/17/16 11/38/16 7/21/16
f 29/39/17 26/34/17 25/6/17 30/5/17
f 15/10/18 17/9/18 16/20/18 13/19/18
f 19/40/19 23/41/19 22/8/19 20/7/19
f 14/27/20 27/42/20 26/11/20 15/10/20
f 8/13/21 14/16/21 13/19/21 9/18/21
f 28/4/22 18/3/22 17/43/22 29/36/22
f 27/35/23 21/31/23 20/7/23 25/6/23
f 21/44/24 8/22/24 7/21/24 19/40/24
f 18/3/25 10/2/25 12/17/25 16/20/25
f 23/41/26 19/40/26 7/21/26 11/38/26
f 6/45/27 5/46/27 3/47/27 4/48/27
f 4/48/28 3/47/28 1/49/28 2/50/28
f 2/50/29 1/49/29 32/51/29 31/52/29
f 31/52/30 32/51/30 34/53/30 33/54/30
f 33/54/31 34/53/31 36/55/31 35/56/31
f 35/56/32 36/55/32 38/57/32 37/58/32
f 37/58/33 38/57/33 40/59/33 39/60/33
f 39/60/34 40/59/34 42/61/34 41/62/34
f 41/62/35 42/61/35 44/63/35 43/64/35
f 43/64/36 44/63/36 46/65/36 45/66/36
f 45/66/37 46/65/37 48/67/37 47/68/37
f 47/68/38 48/67/38 50/69/38 49/70/38
f 49/70/39 50/69/39 52/71/39 51/72/39
f 51/72/40 52/71/40 54/73/40 53/74/40
f 53/74/41 54/73/41 56/75/41 55/76/41
f 55/76/42 56/75/42 58/77/42 57/78/42
f 57/78/43 58/77/43 60/79/43 59/80/43
f 59/80/44 60/79/44 62/81/44 61/82/44
f 61/82/45 62/81/45 64/83/45 63/84/45
f 63/84/46 64/83/46 66/85/46 65/86/46
f 65/86/47 66/85/47 68/87/47 67/88/47
f 67/88/48 68/87/48 70/89/48 69/90/48
f 69/90/49 70/89/49 72/91/49 71/92/49
f 71/92/50 72/91/50 74/93/50 73/94/50
f 73/94/51 74/93/51 76/95/51 75/96/51
f 75/96/52 76/95/52 78/97/52 77/98/52
f 77/98/53 78/97/53 80/99/53 79/100/53
f 79/100/54 80/99/54 82/101/54 81/102/54
f 81/102/55 82/101/55 84/103/55 83/104/55
f 83/104/56 84/103/56 86/105/56 85/106/56
f 3/107/4 5/108/4 88/109/4 86/110/4 84/111/4 82/112/4 80/113/4 78/114/4 76/115/4 74/116/4 72/117/4 70/118/4 68/119/4 66/120/4 64/121/4 62/122/4 60/123/4 58/124/4 56/125/4 54/126/4 52/127/4 50/128/4 48/129/4 46/130/4 44/131/4 42/132/4 40/133/4 38/134/4 36/135/4 34/136/4 32/137/4 1/138/4
f 85/106/57 86/105/57 88/139/57 87/140/57
f 87/140/58 88/139/58 5/141/58 6/142/58
f 6/143/1 4/144/1 2/145/1 31/146/1 33/147/1 35/148/1 37/149/1 39/150/1 41/151/1 43/152/1 45/153/1 47/154/1 49/155/1 51/156/1 53/157/1 55/158/1 57/159/1 59/160/1 61/161/1 63/162/1 65/163/1 67/164/1 69/165/1 71/166/1 73/167/1 75/168/1 77/169/1 79/170/1 81/171/1 83/172/1 85/173/1 87/174/1
