# Blender 4.4.0
# www.blender.org
mtllib robot.mtl
o 立方体.002
v -0.410766 0.298734 0.298734
v -0.298734 0.298734 0.410766
v -0.298734 0.410766 0.298734
v 0.298734 0.298734 0.410766
v 0.410766 0.298734 0.298734
v 0.298734 0.410766 0.298734
v -0.410766 0.298734 -0.298734
v -0.298734 0.410766 -0.298734
v -0.298734 0.298734 -0.410766
v 0.410766 0.298734 -0.298734
v 0.298734 0.298734 -0.410766
v 0.298734 0.410766 -0.298734
v -0.410766 -0.298734 0.298734
v -0.298734 -0.410766 0.298734
v -0.298734 -0.298734 0.410766
v 0.410766 -0.298734 0.298734
v 0.298734 -0.298734 0.410766
v 0.298734 -0.410766 0.298734
v -0.410766 -0.298734 -0.298734
v -0.298734 -0.298734 -0.410766
v -0.298734 -0.410766 -0.298734
v 0.410766 -0.298734 -0.298734
v 0.298734 -0.410766 -0.298734
v 0.298734 -0.298734 -0.410766
v -0.505256 0.000000 -0.191496
v 0.505256 -0.000000 -0.191496
v -0.505256 -0.037359 -0.187816
v 0.505256 -0.037359 -0.187816
v -0.505256 -0.073282 -0.176919
v 0.505256 -0.073282 -0.176919
v -0.505256 -0.106389 -0.159223
v 0.505256 -0.106389 -0.159223
v -0.505256 -0.135408 -0.135408
v 0.505256 -0.135408 -0.135408
v -0.505256 -0.159223 -0.106389
v 0.505256 -0.159223 -0.106389
v -0.505256 -0.176919 -0.073282
v 0.505256 -0.176919 -0.073282
v -0.505256 -0.187816 -0.037359
v 0.505256 -0.187816 -0.037359
v -0.505256 -0.191495 0.000000
v 0.505256 -0.191496 0.000000
v -0.505256 -0.187816 0.037359
v 0.505256 -0.187816 0.037359
v -0.505256 -0.176919 0.073282
v 0.505256 -0.176919 0.073282
v -0.505256 -0.159223 0.106389
v 0.505256 -0.159223 0.106389
v -0.505256 -0.135408 0.135408
v 0.505256 -0.135408 0.135408
v -0.505256 -0.106389 0.159223
v 0.505256 -0.106389 0.159223
v -0.505256 -0.073282 0.176919
v 0.505256 -0.073282 0.176919
v -0.505256 -0.037359 0.187816
v 0.505256 -0.037359 0.187816
v -0.505256 0.000000 0.191496
v 0.505256 -0.000000 0.191496
v -0.505256 0.037359 0.187816
v 0.505256 0.037359 0.187816
v -0.505256 0.073282 0.176919
v 0.505256 0.073282 0.176919
v -0.505256 0.106389 0.159223
v 0.505256 0.106389 0.159223
v -0.505256 0.135408 0.135408
v 0.505256 0.135408 0.135408
v -0.505256 0.159223 0.106389
v 0.505256 0.159223 0.106389
v -0.505256 0.176919 0.073282
v 0.505256 0.176919 0.073282
v -0.505256 0.187816 0.037359
v 0.505256 0.187816 0.037359
v -0.505256 0.191496 0.000000
v 0.505256 0.191495 0.000000
v -0.505256 0.187816 -0.037359
v 0.505256 0.187816 -0.037359
v -0.505256 0.176919 -0.073282
v 0.505256 0.176919 -0.073282
v -0.505256 0.159223 -0.106389
v 0.505256 0.159223 -0.106389
v -0.505256 0.135408 -0.135408
v 0.505256 0.135408 -0.135408
v -0.505256 0.106389 -0.159223
v 0.505256 0.106389 -0.159223
v -0.505256 0.073282 -0.176919
v 0.505256 0.073282 -0.176919
v -0.505256 0.037359 -0.187816
v 0.505256 0.037359 -0.187816
v 0.454529 -0.057408 0.802792
v 0.454529 -0.035817 0.802792
v 0.434249 -0.077688 0.003445
v 0.434249 -0.015538 0.003445
v 0.476119 -0.057408 0.802792
v 0.476119 -0.035817 0.802792
v 0.496399 -0.077688 0.003445
v 0.496399 -0.015538 0.003445
v 0.454529 0.035817 0.802792
v 0.454529 0.057408 0.802792
v 0.434249 0.015538 0.003445
v 0.434249 0.077688 0.003445
v 0.476119 0.035817 0.802792
v 0.476119 0.057408 0.802792
v 0.496399 0.015538 0.003445
v 0.496399 0.077688 0.003445
v -0.454529 -0.057408 0.802792
v -0.454529 -0.035817 0.802792
v -0.434249 -0.077688 0.003445
v -0.434249 -0.015538 0.003445
v -0.476119 -0.057408 0.802792
v -0.476119 -0.035817 0.802792
v -0.496399 -0.077688 0.003445
v -0.496399 -0.015538 0.003445
v -0.454529 0.035817 0.802792
v -0.454529 0.057408 0.802792
v -0.434249 0.015538 0.003445
v -0.434249 0.077688 0.003445
v -0.476119 0.035817 0.802792
v -0.476119 0.057408 0.802792
v -0.496399 0.015538 0.003445
v -0.496399 0.077688 0.003445
vn -0.0000 -0.0000 1.0000
vn -0.0000 -1.0000 -0.0000
vn 1.0000 -0.0000 -0.0000
vn -0.0000 1.0000 -0.0000
vn -0.0000 -0.0000 -1.0000
vn -0.5774 0.5774 0.5774
vn 0.5774 0.5774 0.5774
vn -0.5774 0.5774 -0.5774
vn 0.5774 0.5774 -0.5774
vn -0.5774 -0.5774 0.5774
vn 0.5774 -0.5774 0.5774
vn -0.5774 -0.5774 -0.5774
vn 0.5774 -0.5774 -0.5774
vn -0.7071 0.7071 -0.0000
vn -0.0000 0.7071 0.7071
vn 0.7071 0.7071 -0.0000
vn -0.0000 0.7071 -0.7071
vn -0.7071 -0.0000 -0.7071
vn 0.7071 -0.0000 -0.7071
vn -0.0000 -0.7071 -0.7071
vn -0.7071 -0.7071 -0.0000
vn 0.7071 -0.7071 -0.0000
vn -0.0000 -0.7071 0.7071
vn -0.7071 -0.0000 0.7071
vn 0.7071 -0.0000 0.7071
vn -1.0000 -0.0000 -0.0000
vn -0.0000 -0.0980 -0.9952
vn -0.0000 -0.2903 -0.9569
vn -0.0000 -0.4714 -0.8819
vn -0.0000 -0.6344 -0.7730
vn -0.0000 -0.7730 -0.6344
vn -0.0000 -0.8819 -0.4714
vn -0.0000 -0.9569 -0.2903
vn -0.0000 -0.9952 -0.0980
vn -0.0000 -0.9952 0.0980
vn -0.0000 -0.9569 0.2903
vn -0.0000 -0.8819 0.4714
vn -0.0000 -0.7730 0.6344
vn -0.0000 -0.6344 0.7730
vn -0.0000 -0.4714 0.8819
vn -0.0000 -0.2903 0.9569
vn -0.0000 -0.0980 0.9952
vn -0.0000 0.0980 0.9952
vn -0.0000 0.2903 0.9569
vn -0.0000 0.4714 0.8819
vn -0.0000 0.6344 0.7730
vn -0.0000 0.7730 0.6344
vn -0.0000 0.8819 0.4714
vn -0.0000 0.9569 0.2903
vn -0.0000 0.9952 0.0980
vn -0.0000 0.9952 -0.0980
vn -0.0000 0.9569 -0.2903
vn -0.0000 0.8819 -0.4714
vn -0.0000 0.7730 -0.6344
vn -0.0000 0.6344 -0.7730
vn -0.0000 0.4714 -0.8819
vn -0.0000 0.2903 -0.9569
vn -0.0000 0.0980 -0.9952
vn -0.9997 -0.0000 0.0254
vn 0.9997 -0.0000 0.0254
vn -0.0000 -0.9997 0.0254
vn -0.0000 0.9997 0.0254
vn -0.9997 -0.0000 -0.0254
vn 0.9997 -0.0000 -0.0254
vn -0.0000 0.9997 -0.0254
vn -0.0000 -0.9997 -0.0254
vt 0.283373 0.702554
vt 0.415959 0.702554
vt 0.415959 0.835140
vt 0.283373 0.835140
vt 0.283373 0.520246
vt 0.415959 0.520246
vt 0.415959 0.652831
vt 0.283373 0.652831
vt 0.465681 0.520246
vt 0.598267 0.520246
vt 0.598267 0.652831
vt 0.465681 0.652831
vt 0.283373 0.155629
vt 0.415959 0.155629
vt 0.415959 0.288215
vt 0.283373 0.288215
vt 0.283373 0.337938
vt 0.415959 0.337938
vt 0.415959 0.470523
vt 0.283373 0.470523
vt 0.101065 0.652831
vt 0.101065 0.677693
vt 0.076204 0.652831
vt 0.415959 0.130768
vt 0.440820 0.155629
vt 0.101065 0.520246
vt 0.076204 0.520246
vt 0.101065 0.495384
vt 0.440820 0.288215
vt 0.415959 0.313076
vt 0.233651 0.652831
vt 0.258512 0.652831
vt 0.233651 0.677693
vt 0.440820 0.702554
vt 0.415959 0.677693
vt 0.233651 0.520246
vt 0.233651 0.495384
vt 0.258512 0.520246
vt 0.440820 0.470523
vt 0.415959 0.495384
vt 0.283373 0.130768
vt 0.440820 0.337938
vt 0.440820 0.835140
vt 0.911998 0.227270
vt 0.911998 0.406739
vt 0.900781 0.406739
vt 0.900781 0.227270
vt 0.889564 0.406739
vt 0.889564 0.227270
vt 0.878348 0.406739
vt 0.878348 0.227270
vt 0.867131 0.406739
vt 0.867131 0.227270
vt 0.855914 0.406739
vt 0.855914 0.227270
vt 0.844697 0.406739
vt 0.844697 0.227270
vt 0.833480 0.406739
vt 0.833480 0.227270
vt 0.822264 0.406739
vt 0.822264 0.227270
vt 0.811047 0.406739
vt 0.811047 0.227270
vt 0.799830 0.406739
vt 0.799830 0.227270
vt 0.788613 0.406739
vt 0.788613 0.227270
vt 0.777397 0.406739
vt 0.777397 0.227270
vt 0.766180 0.406739
vt 0.766180 0.227270
vt 0.754963 0.406739
vt 0.754963 0.227270
vt 0.743746 0.406739
vt 0.743746 0.227270
vt 0.732529 0.406739
vt 0.732529 0.227270
vt 0.721313 0.406739
vt 0.721313 0.227270
vt 0.710096 0.406739
vt 0.710096 0.227270
vt 0.698879 0.406739
vt 0.698879 0.227270
vt 0.687662 0.406739
vt 0.687662 0.227270
vt 0.676445 0.406739
vt 0.676445 0.227270
vt 0.665229 0.406739
vt 0.665229 0.227270
vt 0.654012 0.406739
vt 0.654012 0.227270
vt 0.642795 0.406739
vt 0.642795 0.227270
vt 0.631578 0.406739
vt 0.631578 0.227270
vt 0.620362 0.406739
vt 0.620362 0.227270
vt 0.609145 0.406739
vt 0.609145 0.227270
vt 0.597928 0.406739
vt 0.597928 0.227270
vt 0.586711 0.406739
vt 0.586711 0.227270
vt 0.575494 0.406739
vt 0.575494 0.227270
vt 0.659601 0.195659
vt 0.642795 0.197314
vt 0.625989 0.195659
vt 0.609829 0.190756
vt 0.594936 0.182796
vt 0.581881 0.172083
vt 0.571168 0.159029
vt 0.563208 0.144135
vt 0.558306 0.127975
vt 0.556650 0.111169
vt 0.558306 0.094363
vt 0.563208 0.078203
vt 0.571168 0.063309
vt 0.581881 0.050255
vt 0.594936 0.039542
vt 0.609829 0.031581
vt 0.625989 0.026679
vt 0.642795 0.025024
vt 0.659601 0.026679
vt 0.675761 0.031581
vt 0.690655 0.039542
vt 0.703709 0.050255
vt 0.714422 0.063309
vt 0.722383 0.078203
vt 0.727285 0.094363
vt 0.728940 0.111169
vt 0.727285 0.127975
vt 0.722383 0.144135
vt 0.714422 0.159029
vt 0.703709 0.172083
vt 0.690655 0.182796
vt 0.675761 0.190756
vt 0.564278 0.406739
vt 0.564278 0.227270
vt 0.553061 0.406739
vt 0.553061 0.227270
vt 0.856443 0.197314
vt 0.873249 0.195659
vt 0.889410 0.190756
vt 0.904303 0.182796
vt 0.917357 0.172083
vt 0.928070 0.159029
vt 0.936031 0.144135
vt 0.940933 0.127975
vt 0.942588 0.111169
vt 0.940933 0.094363
vt 0.936031 0.078203
vt 0.928070 0.063309
vt 0.917357 0.050255
vt 0.904303 0.039542
vt 0.889410 0.031581
vt 0.873249 0.026679
vt 0.856443 0.025024
vt 0.839637 0.026679
vt 0.823477 0.031581
vt 0.808584 0.039542
vt 0.795530 0.050255
vt 0.784817 0.063309
vt 0.776856 0.078203
vt 0.771954 0.094363
vt 0.770298 0.111169
vt 0.771954 0.127975
vt 0.776856 0.144135
vt 0.784817 0.159029
vt 0.795530 0.172083
vt 0.808584 0.182796
vt 0.823477 0.190756
vt 0.839637 0.195659
vt 0.774253 0.624241
vt 0.856301 0.624241
vt 0.856301 0.706289
vt 0.774253 0.706289
vt 0.856301 0.788336
vt 0.774253 0.788336
vt 0.856301 0.870384
vt 0.774253 0.870384
vt 0.856301 0.952432
vt 0.774253 0.952432
vt 0.692206 0.788336
vt 0.692206 0.870384
vt 0.938349 0.788336
vt 0.938349 0.870384
s 0
usemtl マテリアル.002
f 15/1/1 17/2/1 4/3/1 2/4/1
f 21/5/2 23/6/2 18/7/2 14/8/2
f 22/9/3 10/10/3 5/11/3 16/12/3
f 3/13/4 6/14/4 12/15/4 8/16/4
f 9/17/5 11/18/5 24/19/5 20/20/5
f 1/21/6 2/22/6 3/23/6
f 4/24/7 5/25/7 6/14/7
f 7/26/8 8/27/8 9/28/8
f 10/29/9 11/30/9 12/15/9
f 13/31/10 14/32/10 15/33/10
f 16/34/11 17/2/11 18/35/11
f 19/36/12 20/37/12 21/38/12
f 22/39/13 23/40/13 24/19/13
f 7/26/14 1/21/14 3/23/14 8/27/14
f 2/41/15 4/24/15 6/14/15 3/13/15
f 5/25/16 10/29/16 12/15/16 6/14/16
f 11/18/17 9/17/17 8/16/17 12/15/17
f 19/36/18 7/26/18 9/28/18 20/37/18
f 10/42/19 22/39/19 24/19/19 11/18/19
f 23/6/20 21/5/20 20/20/20 24/19/20
f 13/31/21 19/36/21 21/5/21 14/8/21
f 22/9/22 16/12/22 18/7/22 23/6/22
f 17/2/23 15/1/23 14/8/23 18/7/23
f 1/21/24 13/31/24 15/33/24 2/22/24
f 16/34/25 5/43/25 4/3/25 17/2/25
f 7/26/26 19/36/26 13/31/26 1/21/26
f 25/44/27 26/45/27 28/46/27 27/47/27
f 27/47/28 28/46/28 30/48/28 29/49/28
f 29/49/29 30/48/29 32/50/29 31/51/29
f 31/51/30 32/50/30 34/52/30 33/53/30
f 33/53/31 34/52/31 36/54/31 35/55/31
f 35/55/32 36/54/32 38/56/32 37/57/32
f 37/57/33 38/56/33 40/58/33 39/59/33
f 39/59/34 40/58/34 42/60/34 41/61/34
f 41/61/35 42/60/35 44/62/35 43/63/35
f 43/63/36 44/62/36 46/64/36 45/65/36
f 45/65/37 46/64/37 48/66/37 47/67/37
f 47/67/38 48/66/38 50/68/38 49/69/38
f 49/69/39 50/68/39 52/70/39 51/71/39
f 51/71/40 52/70/40 54/72/40 53/73/40
f 53/73/41 54/72/41 56/74/41 55/75/41
f 55/75/42 56/74/42 58/76/42 57/77/42
f 57/77/43 58/76/43 60/78/43 59/79/43
f 59/79/44 60/78/44 62/80/44 61/81/44
f 61/81/45 62/80/45 64/82/45 63/83/45
f 63/83/46 64/82/46 66/84/46 65/85/46
f 65/85/47 66/84/47 68/86/47 67/87/47
f 67/87/48 68/86/48 70/88/48 69/89/48
f 69/89/49 70/88/49 72/90/49 71/91/49
f 71/91/50 72/90/50 74/92/50 73/93/50
f 73/93/51 74/92/51 76/94/51 75/95/51
f 75/95/52 76/94/52 78/96/52 77/97/52
f 77/97/53 78/96/53 80/98/53 79/99/53
f 79/99/54 80/98/54 82/100/54 81/101/54
f 81/101/55 82/100/55 84/102/55 83/103/55
f 83/103/56 84/102/56 86/104/56 85/105/56
f 28/106/3 26/107/3 88/108/3 86/109/3 84/110/3 82/111/3 80/112/3 78/113/3 76/114/3 74/115/3 72/116/3 70/117/3 68/118/3 66/119/3 64/120/3 62/121/3 60/122/3 58/123/3 56/124/3 54/125/3 52/126/3 50/127/3 48/128/3 46/129/3 44/130/3 42/131/3 40/132/3 38/133/3 36/134/3 34/135/3 32/136/3 30/137/3
f 85/105/57 86/104/57 88/138/57 87/139/57
f 87/139/58 88/138/58 26/140/58 25/141/58
f 25/142/26 27/143/26 29/144/26 31/145/26 33/146/26 35/147/26 37/148/26 39/149/26 41/150/26 43/151/26 45/152/26 47/153/26 49/154/26 51/155/26 53/156/26 55/157/26 57/158/26 59/159/26 61/160/26 63/161/26 65/162/26 67/163/26 69/164/26 71/165/26 73/166/26 75/167/26 77/168/26 79/169/26 81/170/26 83/171/26 85/172/26 87/173/26
f 89/174/59 90/175/59 92/176/59 91/177/59
f 91/177/5 92/176/5 96/178/5 95/179/5
f 95/179/60 96/178/60 94/180/60 93/181/60
f 93/181/1 94/180/1 90/182/1 89/183/1
f 91/184/61 95/179/61 93/181/61 89/185/61
f 96/178/62 92/186/62 90/187/62 94/180/62
f 97/174/59 98/175/59 100/176/59 99/177/59
f 99/177/5 100/176/5 104/178/5 103/179/5
f 103/179/60 104/178/60 102/180/60 101/181/60
f 101/181/1 102/180/1 98/182/1 97/183/1
f 99/184/61 103/179/61 101/181/61 97/185/61
f 104/178/62 100/186/62 98/187/62 102/180/62
f 105/174/63 106/175/63 108/176/63 107/177/63
f 107/177/1 108/176/1 112/178/1 111/179/1
f 111/179/64 112/178/64 110/180/64 109/181/64
f 109/181/5 110/180/5 106/182/5 105/183/5
f 107/184/65 111/179/65 109/181/65 105/185/65
f 112/178/66 108/186/66 106/187/66 110/180/66
f 113/174/63 114/175/63 116/176/63 115/177/63
f 115/177/1 116/176/1 120/178/1 119/179/1
f 119/179/64 120/178/64 118/180/64 117/181/64
f 117/181/5 118/180/5 114/182/5 113/183/5
f 115/184/65 119/179/65 117/181/65 113/185/65
f 120/178/66 116/186/66 114/187/66 118/180/66
