# Blender 4.4.0
# www.blender.org
mtllib r.mtl
o Cube.001
v 0.648774 0.648774 -0.648774
v 0.648774 -0.648774 -0.648774
v 0.648774 0.648774 0.648774
v 0.648774 -0.648774 0.648774
v -0.648774 0.648774 -0.648774
v -0.648774 -0.648774 -0.648774
v -0.648774 0.648774 0.648774
v -0.648774 -0.648774 0.648774
vn -0.0000 1.0000 -0.0000
vn -0.0000 -0.0000 1.0000
vn -1.0000 -0.0000 -0.0000
vn -0.0000 -1.0000 -0.0000
vn 1.0000 -0.0000 -0.0000
vn -0.0000 -0.0000 -1.0000
vt 0.286312 0.361103
vt 0.285400 0.385554
vt 0.200106 0.385074
vt 0.201018 0.360191
vt 0.201930 0.274897
vt 0.115724 0.359279
vt 0.116635 0.273985
vt 0.457812 0.277632
vt 0.456901 0.362926
vt 0.371606 0.362015
vt 0.372518 0.276720
vt 0.288136 0.250926
vt 0.287224 0.275809
vt 0.202841 0.250446
s 1
usemtl Material.001
f 1/1/1 5/2/1 7/3/1 3/4/1
f 4/5/2 3/4/2 7/6/2 8/7/2
f 8/8/3 7/9/3 5/10/3 6/11/3
f 6/12/4 2/13/4 4/5/4 8/14/4
f 2/13/5 1/1/5 3/4/5 4/5/5
f 6/11/6 5/10/6 1/1/6 2/13/6
