# Blender 4.4.0
# www.blender.org
mtllib Player003.mtl
o Cube
v 0.387200 0.387200 -0.517106
v 0.387200 0.517106 -0.387200
v 0.517106 0.387200 -0.387200
v 0.387200 -0.517106 -0.387200
v 0.387200 -0.387200 -0.517106
v 0.517106 -0.387200 -0.387200
v 0.517106 0.387200 0.387200
v 0.387200 0.517106 0.387200
v 0.387200 0.387200 0.517106
v 0.517106 -0.387200 0.387200
v 0.387200 -0.387200 0.517106
v 0.387200 -0.517106 0.387200
v -0.387200 0.387200 -0.517106
v -0.517106 0.387200 -0.387200
v -0.387200 0.517106 -0.387200
v -0.517106 -0.387200 -0.387200
v -0.387200 -0.387200 -0.517106
v -0.387200 -0.517106 -0.387200
v -0.517106 0.387200 0.387200
v -0.387200 0.387200 0.517106
v -0.387200 0.517106 0.387200
v -0.387200 -0.517106 0.387200
v -0.387200 -0.387200 0.517106
v -0.517106 -0.387200 0.387200
vn -0.0000 -1.0000 -0.0000
vn -1.0000 -0.0000 -0.0000
vn -0.0000 -0.0000 1.0000
vn -0.0000 1.0000 -0.0000
vn 1.0000 -0.0000 -0.0000
vn 0.5774 0.5774 -0.5774
vn 0.5774 -0.5774 -0.5774
vn 0.5774 0.5774 0.5774
vn 0.5774 -0.5774 0.5774
vn -0.5774 0.5774 -0.5774
vn -0.5774 -0.5774 -0.5774
vn -0.5774 0.5774 0.5774
vn -0.5774 -0.5774 0.5774
vn -0.7071 -0.7071 -0.0000
vn -0.0000 -0.7071 -0.7071
vn 0.7071 -0.0000 -0.7071
vn -0.7071 -0.0000 0.7071
vn 0.7071 -0.0000 0.7071
vn -0.7071 -0.0000 -0.7071
vn -0.0000 0.7071 0.7071
vn 0.7071 0.7071 -0.0000
vn -0.0000 -0.7071 0.7071
vn -0.7071 0.7071 -0.0000
vn -0.0000 0.7071 -0.7071
vn 0.7071 -0.7071 -0.0000
vn -0.0000 -0.0000 -1.0000
vt 0.446080 0.216637
vt 0.445950 0.369414
vt 0.293173 0.369283
vt 0.293303 0.216507
vt 0.853972 0.421018
vt 0.853842 0.573794
vt 0.701065 0.573664
vt 0.701195 0.420888
vt 0.241873 0.420496
vt 0.241743 0.573273
vt 0.088966 0.573142
vt 0.089097 0.420366
vt 0.445732 0.624703
vt 0.445602 0.777479
vt 0.292825 0.777349
vt 0.292956 0.624573
vt 0.445906 0.420670
vt 0.445776 0.573447
vt 0.292999 0.573316
vt 0.293129 0.420540
vt 0.497032 0.573490
vt 0.497010 0.599118
vt 0.471404 0.573468
vt 0.471578 0.369435
vt 0.445928 0.395042
vt 0.267371 0.573295
vt 0.241721 0.598901
vt 0.293151 0.394912
vt 0.267545 0.369262
vt 0.675437 0.573642
vt 0.701043 0.599292
vt 0.446102 0.191009
vt 0.471708 0.216659
vt 0.879470 0.573816
vt 0.853820 0.599423
vt 0.267675 0.216485
vt 0.293325 0.190879
vt 0.497162 0.420714
vt 0.879600 0.421040
vt 0.649809 0.573620
vt 0.649939 0.420844
vt 0.088945 0.598771
vt 0.649787 0.599249
s 1
usemtl Material.001
f 18/1/1 4/2/1 12/3/1 22/4/1
f 24/5/2 19/6/2 14/7/2 16/8/2
f 11/9/3 9/10/3 20/11/3 23/12/3
f 2/13/4 15/14/4 21/15/4 8/16/4
f 6/17/5 3/18/5 7/19/5 10/20/5
f 1/21/6 2/22/6 3/23/6
f 4/2/7 5/24/7 6/25/7
f 7/26/8 8/27/8 9/10/8
f 10/28/9 11/29/9 12/3/9
f 13/30/10 14/7/10 15/31/10
f 16/32/11 17/33/11 18/1/11
f 19/6/12 20/34/12 21/35/12
f 22/4/13 23/36/13 24/37/13
f 18/1/14 22/4/14 24/37/14 16/32/14
f 4/2/15 18/1/15 17/33/15 5/24/15
f 3/18/16 6/17/16 5/38/16 1/21/16
f 23/39/17 20/34/17 19/6/17 24/5/17
f 9/10/18 11/9/18 10/20/18 7/19/18
f 13/40/19 17/41/19 16/8/19 14/7/19
f 8/27/20 21/42/20 20/11/20 9/10/20
f 2/13/21 8/16/21 7/19/21 3/18/21
f 22/4/22 12/3/22 11/29/22 23/36/22
f 21/35/23 15/31/23 14/7/23 19/6/23
f 15/43/24 2/22/24 1/21/24 13/40/24
f 12/3/25 4/2/25 6/17/25 10/20/25
f 17/41/26 13/40/26 1/21/26 5/38/26
